<?xml version="1.0" encoding="UTF-8" standalone="no"?>
<!-- Created with Inkscape (http://www.inkscape.org/) -->

<svg
   width="210mm"
   height="297mm"
   viewBox="0 0 210 297"
   version="1.1"
   id="svg1"
   xml:space="preserve"
   inkscape:version="1.4.4 (dcaf3e7, 2026-05-05)"
   sodipodi:docname="绘图.svg"
   xmlns:inkscape="http://www.inkscape.org/namespaces/inkscape"
   xmlns:sodipodi="http://sodipodi.sourceforge.net/DTD/sodipodi-0.dtd"
   xmlns="http://www.w3.org/2000/svg"
   xmlns:svg="http://www.w3.org/2000/svg"><sodipodi:namedview
     id="namedview1"
     pagecolor="#505050"
     bordercolor="#ffffff"
     borderopacity="1"
     inkscape:showpageshadow="0"
     inkscape:pageopacity="0"
     inkscape:pagecheckerboard="1"
     inkscape:deskcolor="#505050"
     inkscape:document-units="mm"
     inkscape:zoom="2.1089995"
     inkscape:cx="363.67956"
     inkscape:cy="592.46102"
     inkscape:window-width="1920"
     inkscape:window-height="1051"
     inkscape:window-x="-9"
     inkscape:window-y="-9"
     inkscape:window-maximized="1"
     inkscape:current-layer="layer3" /><defs
     id="defs1"><inkscape:path-effect
       effect="bspline"
       id="path-effect1"
       is_visible="true"
       lpeversion="1.3"
       weight="33.333333"
       steps="2"
       helper_size="0"
       apply_no_weight="true"
       apply_with_weight="true"
       only_selected="false"
       uniform="false" /></defs><g
     inkscape:groupmode="layer"
     id="layer2"
     inkscape:label="图层 2"
     style="fill:#000000" /><g
     inkscape:groupmode="layer"
     id="layer3"
     inkscape:label="图层 3"
     style="fill:#000000"><path
       id="path12"
       style="opacity:1;fill:none;stroke:#000000;stroke-width:1;stroke-dasharray:none;stroke-opacity:1;stroke-linecap:round"
       d="m 121.9417,136.6826 c -0.18818,0.25091 -1.00363,3.13636 4.64182,2.44636 5.64545,-0.69 11.91817,-3.26181 14.74089,-3.13636 2.82273,0.12545 6.02182,0.25091 6.39818,2.57181 m -19.25726,-7.33908 c -0.2509,0 -5.01817,0.50182 -6.71181,5.7709 m 9.59727,-4.13999 c 0,0 2.06999,-1.69364 -3.26182,-1.56818 m -12.85908,2.63454 c -1.69363,1.19182 -3.01091,3.57545 -1.94454,3.95182 1.06636,0.37636 3.32454,2.75999 18.25362,-5.20636 m -22.89543,0.12545 c -0.25091,0.12546 -5.08091,3.57545 -4.57909,5.83363 0.50182,2.25818 8.5309,-1.81909 11.10272,-4.64181 m -6.77454,-0.81545 c -0.25091,0 1.94454,-0.75273 -1.94455,-0.87819 -3.88909,-0.12545 -17.814527,1.06637 -17.814527,1.06637 m 7.903628,-1.81909 c -0.313635,0.18818 -7.088174,6.52363 -5.708176,6.89999 1.38,0.37636 1.317273,2.32091 17.814535,-5.26908 m -20.135442,2.63454 c 0,0 5.645449,-0.75273 8.09181,-4.26545 m -31.112697,1.81909 c 0,0 -0.815454,2.3209 2.634543,1.50545 3.449997,-0.81545 6.52363,-1.38 6.52363,-1.38 0,0 1.81909,-0.43909 -0.25091,2.25818 -2.069996,2.69727 -1.693634,3.13636 -1.693634,3.13636 0,0 -1.317271,0.87818 0.501819,0.18818 1.81909,-0.69 10.663626,-5.70817 10.663626,-5.70817 0,0 -0.940908,3.57545 4.767268,2.44636 m -23.522704,-2.44636 c -0.313637,0.18818 -6.335451,1.56818 -5.582722,4.89272 0.752727,3.32454 11.039988,-2.25818 9.095444,-4.14 -1.944542,-1.88181 -5.896356,0.25091 -5.896356,0.25091 m -8.844539,-0.25091 c -0.250907,0.12546 -3.324543,2.07 -3.951814,4.32818 -0.627272,2.25818 14.929077,-5.58272 15.117259,-5.01818 m -21.013618,6.58636 c 0,0 -1.881814,0.81545 -2.258179,0.37636 -0.376362,-0.43908 -1.254543,-0.62727 -0.313634,-3.0109 0.940906,-2.38363 6.837264,-6.58636 6.27272,-8.40545 -0.564544,-1.81909 -16.371803,9.34636 -20.574526,11.2909 -4.202724,1.94454 -8.468174,-0.43909 -7.652721,-1.31727 0.815454,-0.87818 2.697271,-2.63454 7.652721,-2.44636 4.95545,0.18818 23.773614,0.50181 26.909974,-2.63455" /><path
       style="opacity:1;fill:none;stroke:#000000;stroke-width:1;stroke-dasharray:none;stroke-opacity:1;paint-order:markers stroke fill;stroke-linecap:round"
       d="m 154.4344,128.90442 6.14727,-0.50181"
       id="path15" /><path
       style="opacity:1;fill:none;stroke:#000000;stroke-width:1;stroke-dasharray:none;stroke-opacity:1"
       d="m 157.57076,129.71988 -0.94091,5.0809"
       id="path16" /><path
       style="opacity:1;fill:none;stroke:#000000;stroke-width:1;stroke-dasharray:none;stroke-opacity:1;stroke-linecap:round"
       d="m 154.30895,131.97806 c 0,0 -1.00364,0.25091 -0.81546,0.81545 0.18818,0.56455 1.44273,0.25091 1.44273,0.25091 0,0 0.50182,0.0627 -0.31364,0.43909 -0.81545,0.37636 -1.19182,0.75273 -1.19182,0.75273 0,0 0.50182,0.50182 1.06637,0.43909"
       id="path17" /><path
       style="opacity:1;fill:none;stroke:#000000;stroke-width:1;stroke-dasharray:none;stroke-opacity:1;stroke-linecap:round"
       d="m 158.1353,132.04078 2.38364,0.4391"
       id="path18" /><path
       style="opacity:1;fill:none;stroke:#000000;stroke-width:1;stroke-dasharray:none;stroke-opacity:1;stroke-linecap:round"
       d="m 158.95076,133.73442 1.69363,0.31364"
       id="path19" /><path
       id="path21"
       style="opacity:1;fill:none;stroke:#000000;stroke-width:1;stroke-dasharray:none;stroke-opacity:1;stroke-linecap:round"
       d="m 152.30168,140.13259 c -0.18819,-0.31363 -1.94455,-0.75272 2.06999,-2.06999 4.01454,-1.31728 6.27272,2.25818 16.99908,-1.12909 10.72635,-3.38727 17.62635,-0.43909 17.93998,2.38363 m -36.69542,-2.63454 c 0.56454,-0.25091 7.77818,-1.88182 8.59363,-0.50182 0.81545,1.38 -3.38727,4.76727 -9.15817,3.88909" /><path
       id="path7"
       style="fill:none;opacity:1;fill-opacity:1;stroke:#000000;stroke-width:1;stroke-dasharray:none;stroke-dashoffset:0;stroke-opacity:1;stroke-linejoin:miter;stroke-linecap:round;paint-order:stroke fill markers"
       d="m 164.98891,130.80242 c 0,0 1.03126,0.15524 0.72077,0.7873 -0.31048,0.63206 -3.39314,0.95363 -3.89214,1.31956 m -11.64859,-1.68395 -2.13272,2.44636 c 0,0 12.41998,-4.70454 17.0618,-2.82272" /></g></svg>
